<svg fill="#ffffff" height="800px" width="800px" version="1.1" id="Layer_1" xmlns="http://www.w3.org/2000/svg" xmlns:xlink="http://www.w3.org/1999/xlink" viewBox="-143 145 256 112.8" xml:space="preserve" data-originalfillcolor="#000000" transform="rotate(0) scale(1, 1)">
<g>
	<path d="M56.6,145c-31.2,0-56.4,25.3-56.4,56.4c0,31.1,25.2,56.4,56.4,56.4c31.2,0,56.4-25.3,56.4-56.4&#10;&#9;&#9;C113,170.3,87.8,145,56.6,145z"/>
	<path d="M-86.6,145c-31.2,0-56.4,25.3-56.4,56.4c0,31.1,25.3,56.4,56.4,56.4c31.2,0,56.4-25.3,56.4-56.4&#10;&#9;&#9;C-30.2,170.3-55.4,145-86.6,145z"/>
</g>
</svg>