<svg width="200" height="200" viewBox="0 0 200 200" fill="none" xmlns="http://www.w3.org/2000/svg">
  <rect width="200" height="200" fill="#48A7A5"/>
  <path d="M65 60C65 49.5066 73.5066 41 84 41H116C126.493 41 135 49.5066 135 60V63H65V60Z" fill="#F5B93A"/>
  <path d="M58 92C58 81.5066 66.5066 73 77 73H123C133.493 73 142 81.5066 142 92V95H58V92Z" fill="#F5B93A"/>
  <path d="M58 105H142V108C142 118.493 133.493 127 123 127H77C66.5066 127 58 118.493 58 108V105Z" fill="#F5B93A"/>
  <path d="M65 137H135V140C135 150.493 126.493 159 116 159H84C73.5066 159 65 150.493 65 140V137Z" fill="#F5B93A"/>
</svg>
